<?xml version="1.0" encoding="UTF-8" standalone="no"?>
<svg
   xmlns:dc="http://purl.org/dc/elements/1.1/"
   xmlns:cc="http://creativecommons.org/ns#"
   xmlns:rdf="http://www.w3.org/1999/02/22-rdf-syntax-ns#"
   xmlns:svg="http://www.w3.org/2000/svg"
   xmlns="http://www.w3.org/2000/svg"
   xmlns:sodipodi="http://sodipodi.sourceforge.net/DTD/sodipodi-0.dtd"
   xmlns:inkscape="http://www.inkscape.org/namespaces/inkscape"
   inkscape:version="1.0beta2 (2b71d25, 2019-12-03)"
   sodipodi:docname="TTR_Map_Vector.svg"
   width="297mm"
   height="210mm"
   viewBox="0 0 297 210"
   version="1.1"
   id="svg8">
  <sodipodi:namedview
     inkscape:current-layer="svg8"
     inkscape:window-maximized="0"
     inkscape:window-y="111"
     inkscape:window-x="4137"
     inkscape:cy="396.85039"
     inkscape:cx="448.28677"
     inkscape:zoom="1.7684262"
     showgrid="false"
     id="namedview312"
     inkscape:window-height="1960"
     inkscape:window-width="2693"
     inkscape:pageshadow="2"
     inkscape:pageopacity="0"
     guidetolerance="10"
     gridtolerance="10"
     objecttolerance="10"
     borderopacity="1"
     inkscape:document-rotation="0"
     bordercolor="#666666"
     pagecolor="#ffffff" />
  <defs
     id="defs2" />
  <metadata
     id="metadata5">
    <rdf:RDF>
      <cc:Work
         rdf:about="">
        <dc:format>image/svg+xml</dc:format>
        <dc:type
           rdf:resource="http://purl.org/dc/dcmitype/StillImage" />
        <dc:title />
      </cc:Work>
    </rdf:RDF>
  </metadata>
  <g
     id="layer1" />
  <ellipse
     style="fill:#ff0000;stroke-width:0.32267"
     id="Charleston"
     cx="269.00317"
     cy="132.90344"
     rx="2.9090028"
     ry="2.9917846">
    <title
       id="title463">Charleston</title>
  </ellipse>
  <ellipse
     style="fill:#ff0000;stroke-width:0.32267"
     id="Atlanta"
     cx="239.62224"
     cy="130.60208"
     rx="2.9090028"
     ry="2.9917846">
    <title
       id="title467">Atlanta</title>
  </ellipse>
  <ellipse
     style="fill:#ff0000;stroke-width:0.32267"
     id="Nashville"
     cx="223.76819"
     cy="118.78837"
     rx="2.9090028"
     ry="2.9917846">
    <title
       id="title469">Nashville</title>
  </ellipse>
  <ellipse
     style="fill:#ff0000;stroke-width:0.32267"
     id="Miami"
     cx="279.33014"
     cy="185.22133"
     rx="2.9090028"
     ry="2.9917846">
    <title
       id="title465">Miami</title>
  </ellipse>
  <ellipse
     style="fill:#ff0000;stroke-width:0.32267"
     id="NewOrleans"
     cx="209.07771"
     cy="172.48706"
     rx="2.9090028"
     ry="2.9917846">
    <title
       id="title479">New Orleans</title>
  </ellipse>
  <ellipse
     style="fill:#ff0000;stroke-width:0.32267"
     id="SaintLouis"
     cx="194.24179"
     cy="105.90067"
     rx="2.9090028"
     ry="2.9917846">
    <title
       id="title475">Saint Louis</title>
  </ellipse>
  <ellipse
     style="fill:#ff0000;stroke-width:0.32267"
     id="Chicago"
     cx="208.05957"
     cy="79.051331"
     rx="2.9090028"
     ry="2.9917846">
    <title
       id="title471">Chicago</title>
  </ellipse>
  <ellipse
     style="fill:#ff0000;stroke-width:0.32267"
     id="Pittsburgh"
     cx="249.94919"
     cy="73.68145"
     rx="2.9090028"
     ry="2.9917846">
    <title
       id="title459">Pittsburgh</title>
  </ellipse>
  <ellipse
     style="fill:#ff0000;stroke-width:0.32267"
     id="KansasCity"
     cx="167.04262"
     cy="105.74725"
     rx="2.9090028"
     ry="2.9917846">
    <title
       id="title483">Kansas City</title>
  </ellipse>
  <ellipse
     style="fill:#ff0000;stroke-width:0.32267"
     id="Omaha"
     cx="160.3519"
     cy="88.56366"
     rx="2.9090028"
     ry="2.9917846">
    <title
       id="title481">Omaha</title>
  </ellipse>
  <ellipse
     style="fill:#ff0000;stroke-width:0.32267"
     id="Dallas"
     cx="166.75174"
     cy="163.58842"
     rx="2.9090028"
     ry="2.9917846">
    <title
       id="title487">Dallas</title>
  </ellipse>
  <ellipse
     style="fill:#ff0000;stroke-width:0.32267"
     id="Houston"
     cx="179.84224"
     cy="177.0898"
     rx="2.9090028"
     ry="2.9917846">
    <title
       id="title489">Houston</title>
  </ellipse>
  <ellipse
     style="fill:#ff0000;stroke-width:0.32267"
     id="Denver"
     cx="113.95335"
     cy="111.42399"
     rx="2.9090028"
     ry="2.9917846">
    <title
       id="title495">Denver</title>
  </ellipse>
  <ellipse
     style="fill:#ff0000;stroke-width:0.32267"
     id="SaltLakeCity"
     cx="73.227295"
     cy="101.60477"
     rx="2.9090028"
     ry="2.9917846">
    <title
       id="title499">Salt Lake City</title>
  </ellipse>
  <ellipse
     style="fill:#ff0000;stroke-width:0.32267"
     id="Helena"
     cx="95.481155"
     cy="60.026653"
     rx="2.9090028"
     ry="2.9917846">
    <title
       id="title497">Helena</title>
  </ellipse>
  <ellipse
     style="fill:#ff0000;stroke-width:0.32267"
     id="Duluth"
     cx="170.09709"
     cy="58.032116"
     rx="2.9090028"
     ry="2.9917846">
    <title
       id="title473">Duluth</title>
  </ellipse>
  <ellipse
     style="fill:#ff0000;stroke-width:0.32267"
     id="LosAngeles"
     cx="34.9739"
     cy="157.29799"
     rx="2.9090028"
     ry="2.9917846">
    <title
       id="title507">Los Angeles</title>
  </ellipse>
  <ellipse
     style="fill:#ff0000;stroke-width:0.32267"
     id="SanFrancisco"
     cx="10.68373"
     cy="122.1637"
     rx="2.9090028"
     ry="2.9917846">
    <title
       id="title505">San Francisco</title>
  </ellipse>
  <ellipse
     style="fill:#ff0000;stroke-width:0.32267"
     id="Portland"
     cx="15.047236"
     cy="57.111568"
     rx="2.9090028"
     ry="2.9917846">
    <title
       id="title503">Portland</title>
  </ellipse>
  <ellipse
     style="fill:#ff0000;stroke-width:0.32267"
     id="Seattle"
     cx="22.028841"
     cy="40.388252"
     rx="2.9090028"
     ry="2.9917846">
    <title
       id="title501">Seattle</title>
  </ellipse>
  <path
     id="path396"
     d="M 25.374193,46.678672 90.826756,62.328005 91.699451,58.645814 26.246895,42.996468 Z"
     style="fill:#ffff00;stroke:#000000;stroke-width:0.32267px;stroke-linecap:butt;stroke-linejoin:miter;stroke-opacity:1"
     inkscape:connector-curvature="0" />
  <path
     id="path398"
     d="m 65.518431,21.363568 2.909003,-2.915073 28.653679,36.515114 -2.909009,1.994525 z"
     style="fill:#999999;stroke:#000000;stroke-width:0.32267px;stroke-linecap:butt;stroke-linejoin:miter;stroke-opacity:1"
     inkscape:connector-curvature="0" />
  <path
     id="path404"
     d="m 130.15877,20.898123 -30.4759,33.388008 1.17668,2.73062 31.65258,-33.139772 z"
     style="fill:#0000ff;stroke:#000000;stroke-width:0.32267px;stroke-linecap:butt;stroke-linejoin:miter;stroke-opacity:1"
     inkscape:connector-curvature="0" />
  <path
     id="path406"
     d="M 135.45382,24.497573 166.9887,56.272038 169.81272,53.541416 138.0425,21.14636 Z"
     style="fill:#000000;stroke:#000000;stroke-width:0.32267px;stroke-linecap:butt;stroke-linejoin:miter;stroke-opacity:1"
     inkscape:connector-curvature="0" />
  <path
     id="path408"
     d="M 27.335996,22.677033 60.668912,18.635598 59.902637,14.493126 26.95286,18.534563 Z"
     style="fill:#999999;stroke:#000000;stroke-width:0.32267px;stroke-linecap:butt;stroke-linejoin:miter;stroke-opacity:1"
     inkscape:connector-curvature="0" />
  <path
     id="path410"
     d="m 18.332278,25.405004 0.383138,11.720164 7.854307,-0.101042 -0.383137,-11.417057 z"
     style="fill:#999999;stroke:#000000;stroke-width:0.32267px;stroke-linecap:butt;stroke-linejoin:miter;stroke-opacity:1"
     inkscape:connector-curvature="0" />
  <path
     id="path412"
     d="m 68.67744,16.602513 9.615772,-3.92803 10.727833,-2.323827 11.110975,-0.6062156 11.20676,0.9093246 10.63206,3.031077 9.67421,4.849721 1.7241,-3.334183 L 123.12026,10.451693 112.10506,7.0164743 100.41937,6.2081845 88.829476,6.6123276 77.431154,8.9361542 67.18224,13.684842 Z"
     style="fill:#ffffff;stroke:#000000;stroke-width:0.32267px;stroke-linecap:butt;stroke-linejoin:miter;stroke-opacity:1"
     inkscape:connector-curvature="0" />
  <path
     id="path416"
     d="m 26.582935,37.955428 10.666857,0.263714 11.000197,-1.845983 8.750156,-6.856505 4.916756,-10.284755 3.500062,1.845981 -5.666767,11.163795 -10.166851,7.471833 -12.000214,2.021791 -11.083531,-0.08793 z"
     style="fill:#999999;stroke:#000000;stroke-width:0.32267px;stroke-linecap:butt;stroke-linejoin:miter;stroke-opacity:1"
     inkscape:connector-curvature="0" />
  <path
     id="path418"
     d="m 17.249435,41.647396 7.166793,3.076632 -4.250075,10.28476 -7.166795,-2.725022 z"
     style="fill:#999999;stroke:#000000;stroke-width:0.32267px;stroke-linecap:butt;stroke-linejoin:miter;stroke-opacity:1"
     inkscape:connector-curvature="0" />
  <path
     id="path420"
     d="M 70.250384,98.521219 73.50044,96.411522 68.08368,85.863055 60.250205,76.808954 51.250043,68.985509 41.166529,62.39271 30.416336,58.173322 19.416139,55.975727 l -0.666678,3.867777 10.500187,2.021778 10.416854,3.95568 9.416836,6.32908 8.66682,7.559739 7.500136,8.526673 z"
     style="fill:#0000ff;stroke:#000000;stroke-width:0.32267px;stroke-linecap:butt;stroke-linejoin:miter;stroke-opacity:1"
     inkscape:connector-curvature="0" />
  <path
     id="path422"
     d="M 91.834104,63.271757 75.000469,93.334891 77.917187,95.356669 94.750818,65.205634 Z"
     style="fill:#ff00ff;stroke:#000000;stroke-width:0.32267px;stroke-linecap:butt;stroke-linejoin:miter;stroke-opacity:1"
     inkscape:connector-curvature="0" />
  <path
     id="path424"
     d="m 95.917509,64.062891 3.250055,-1.758084 16.416976,43.600333 -3.16672,1.31856 z"
     style="fill:#00ff00;stroke:#000000;stroke-width:0.32267px;stroke-linecap:butt;stroke-linejoin:miter;stroke-opacity:1"
     inkscape:connector-curvature="0" />
  <path
     id="path426"
     d="m 99.50091,57.821713 67.2512,-0.703231 0.16668,3.69196 -67.084545,0.966938 z"
     style="fill:#ff6600;stroke:#000000;stroke-width:0.32267px;stroke-linecap:butt;stroke-linejoin:miter;stroke-opacity:1"
     inkscape:connector-curvature="0" />
  <path
     id="path428"
     d="m 102.16763,65.996767 1.33335,-3.516155 51.83427,22.239688 -1.25003,3.428254 z"
     style="fill:#ff0000;stroke:#000000;stroke-width:0.32267px;stroke-linecap:butt;stroke-linejoin:miter;stroke-opacity:1"
     inkscape:connector-curvature="0" />
  <path
     id="path430"
     d="m 165.50209,61.601576 7.1668,2.900827 -8.08347,21.536457 -7.33348,-2.98873 z"
     style="fill:#999999;stroke:#000000;stroke-width:0.32267px;stroke-linecap:butt;stroke-linejoin:miter;stroke-opacity:1"
     inkscape:connector-curvature="0" />
  <path
     id="path432"
     d="m 140.41832,21.429497 0.83335,-4.131483 65.75118,14.592049 -0.75002,3.867768 z"
     style="fill:#999999;stroke:#000000;stroke-width:0.32267px;stroke-linecap:butt;stroke-linejoin:miter;stroke-opacity:1"
     inkscape:connector-curvature="0" />
  <path
     id="path434"
     d="m 205.75281,37.2522 1.9167,3.604063 -30.66721,13.800903 -1.9167,-3.779863 z"
     style="fill:#999999;stroke:#000000;stroke-width:0.32267px;stroke-linecap:butt;stroke-linejoin:miter;stroke-opacity:1"
     inkscape:connector-curvature="0" />
  <path
     id="path436"
     d="m 163.50205,87.269518 19.00035,-14.064623 22.41708,3.516156 -0.50002,3.779863 -21.00037,-3.252449 -18.167,13.273489 z"
     style="fill:#0000ff;stroke:#000000;stroke-width:0.32267px;stroke-linecap:butt;stroke-linejoin:miter;stroke-opacity:1"
     inkscape:connector-curvature="0" />
  <path
     id="path438"
     d="m 115.41787,106.60838 8.91683,-7.559735 10.25018,-5.274243 11.08352,-3.516156 11.16687,-2.109692 0.83334,4.219385 -11.00018,2.021792 -10.66686,3.164537 -9.83351,5.010532 -8.58347,7.38393 z"
     style="fill:#ff00ff;stroke:#000000;stroke-width:0.32267px;stroke-linecap:butt;stroke-linejoin:miter;stroke-opacity:1"
     inkscape:connector-curvature="0" />
  <path
     id="path440"
     d="m 76.917171,97.378464 32.750609,6.592796 -0.75002,4.21939 -32.167261,-6.85651 z"
     style="fill:#ff0000;stroke:#000000;stroke-width:0.32267px;stroke-linecap:butt;stroke-linejoin:miter;stroke-opacity:1"
     inkscape:connector-curvature="0" />
  <path
     id="path442"
     d="m 108.16773,112.05842 0.75003,-3.42825 -32.417263,-6.8565 -0.583346,3.42824 z"
     style="fill:#ffff00;stroke:#000000;stroke-width:0.32267px;stroke-linecap:butt;stroke-linejoin:miter;stroke-opacity:1"
     inkscape:connector-curvature="0" />
  <path
     id="path444"
     d="m 158.58531,93.510695 7.08346,-3.076644 4.91675,10.021059 -6.58345,3.60406 z"
     style="fill:#999999;stroke:#000000;stroke-width:0.32267px;stroke-linecap:butt;stroke-linejoin:miter;stroke-opacity:1"
     inkscape:connector-curvature="0" />
  <path
     id="path446"
     d="M 10.415978,59.316077 6.0825669,70.479874 3.9158615,82.434801 3.4158516,94.301828 4.5825398,107.0479 7.6659277,119.00283 11.165991,118.56331 7.5825941,106.08096 6.9992495,94.741353 7.6659277,82.962227 9.7492995,71.183104 13.999376,60.45882 Z"
     style="fill:#00ff00;stroke:#000000;stroke-width:0.32267px;stroke-linecap:butt;stroke-linejoin:miter;stroke-opacity:1"
     inkscape:connector-curvature="0" />
  <path
     id="path448"
     d="m 18.332787,61.601576 -4.166742,-1.406463 -3.833401,10.90009 -2.1667064,11.867024 -0.7500142,12.394442 1.0000197,12.130761 3.2500579,11.3396 3.416727,-1.14277 -3.000053,-10.90007 -1.166688,-11.603326 0.750014,-11.867027 2.166705,-11.251697 z"
     style="fill:#ff00ff;stroke:#000000;stroke-width:0.32267px;stroke-linecap:butt;stroke-linejoin:miter;stroke-opacity:1"
     inkscape:connector-curvature="0" />
  <path
     id="path450"
     d="M 67.667006,98.345415 15.082728,116.4536 16.416085,120.49719 68.83369,102.21318 Z"
     style="fill:#ff6600;stroke:#000000;stroke-width:0.32267px;stroke-linecap:butt;stroke-linejoin:miter;stroke-opacity:1"
     inkscape:connector-curvature="0" />
  <path
     id="path454"
     d="m 70.167051,106.25676 -1.416694,-3.69196 -52.1676,18.28401 1.083352,3.69196 z"
     style="fill:#ffffff;stroke:#000000;stroke-width:0.32267px;stroke-linecap:butt;stroke-linejoin:miter;stroke-opacity:1"
     inkscape:connector-curvature="0" />
  <path
     id="path456"
     d="m 12.749353,125.85933 -3.3333926,1.75808 4.5834156,11.16379 6.833456,10.10895 7.833473,8.9662 2.91672,-2.90084 -7.916811,-8.70248 -6.666785,-9.66943 z"
     style="fill:#ffff00;stroke:#000000;stroke-width:0.32267px;stroke-linecap:butt;stroke-linejoin:miter;stroke-opacity:1"
     inkscape:connector-curvature="0" />
  <path
     id="path458"
     d="m 34.833083,151.96679 -2.833384,3.07663 -7.833475,-8.96619 -6.833454,-9.93314 -4.750087,-11.16379 3.500063,-1.49436 4.416746,10.72426 6.333447,10.10895 z"
     style="fill:#ff00ff;stroke:#000000;stroke-width:0.32267px;stroke-linecap:butt;stroke-linejoin:miter;stroke-opacity:1"
     inkscape:connector-curvature="0" />
  <path
     id="path460"
     d="m 19.659593,50.415842 c 0,-0.08702 -0.045,-0.205693 -0.100013,-0.263708 -0.07778,-0.08205 -0.06853,-0.105491 0.04167,-0.105491 0.0889,0 0.144762,-0.07368 0.149974,-0.197784 l 0.0084,-0.197785 0.05491,0.206175 0.05492,0.20618 0.156461,-0.182368 c 0.143061,-0.16675 0.144573,-0.187181 0.01767,-0.23855 -0.129159,-0.05229 -0.129051,-0.06371 0.0016,-0.164449 0.09835,-0.07586 0.126793,-0.18457 0.09501,-0.363198 -0.06307,-0.354409 0.02572,-0.57983 0.186215,-0.47281 0.08297,0.05532 0.08998,0.08378 0.02081,0.08469 -0.0573,6.62e-4 -0.104173,0.08046 -0.104173,0.177155 0,0.143563 0.05732,0.176831 0.312507,0.181381 0.277737,0.0048 0.290999,0.01468 0.119213,0.08733 -0.144014,0.06092 -0.179805,0.126585 -0.140386,0.257587 0.04051,0.134589 0.02258,0.163554 -0.07638,0.123498 -0.08728,-0.03533 -0.155533,0.02048 -0.210067,0.171763 -0.04443,0.123249 -0.178969,0.291965 -0.298989,0.374918 -0.143991,0.09952 -0.204601,0.205727 -0.17819,0.312259 0.02201,0.08879 0.0061,0.161445 -0.0355,0.161445 -0.04154,0 -0.07552,-0.0712 -0.07552,-0.15823 z"
     style="fill:#999999;stroke-width:0.0855889"
     inkscape:connector-curvature="0" />
  <path
     id="path468"
     d="m 34.333074,150.20871 5.500099,-11.3396 11.916879,-3.16454 1.083353,4.30728 -10.083514,2.1097 -4.750086,10.46056 z"
     style="fill:#999999;stroke:#000000;stroke-width:0.32267px;stroke-linecap:butt;stroke-linejoin:miter;stroke-opacity:1"
     inkscape:connector-curvature="0" />
  <path
     id="path470"
     d="m 71.083732,105.28983 3.916737,0.43951 -1.083353,12.04283 -5.250094,11.60333 -8.000143,8.61456 -2.833385,-3.07663 7.666802,-7.73554 4.500082,-10.72429 z"
     style="fill:#ff6600;stroke:#000000;stroke-width:0.32267px;stroke-linecap:butt;stroke-linejoin:miter;stroke-opacity:1"
     inkscape:connector-curvature="0" />
  <path
     id="path472"
     d="m 37.999805,153.19744 11.000198,-1.93388 11.250202,0.088 11.500203,2.6371 -1.500024,3.86778 -10.166849,-2.3734 -11.083532,-0.088 -10.500188,1.58226 z"
     style="fill:#999999;stroke:#000000;stroke-width:0.32267px;stroke-linecap:butt;stroke-linejoin:miter;stroke-opacity:1"
     inkscape:connector-curvature="0" />
  <path
     id="path474"
     d="m 110.25112,115.57456 4.33339,-0.088 -1,23.20663 -3.91673,-0.26371 z"
     style="fill:#999999;stroke:#000000;stroke-width:0.32267px;stroke-linecap:butt;stroke-linejoin:miter;stroke-opacity:1"
     inkscape:connector-curvature="0" />
  <path
     id="path476"
     d="m 109.50109,144.93448 3.91675,0.17579 -1.08336,22.94293 -3.8334,-0.35161 z"
     style="fill:#999999;stroke:#000000;stroke-width:0.32267px;stroke-linecap:butt;stroke-linejoin:miter;stroke-opacity:1"
     inkscape:connector-curvature="0" />
  <path
     id="path478"
     d="m 76.500497,158.73539 31.750583,9.75734 -1.1667,3.69195 -31.667237,-9.84524 z"
     style="fill:#999999;stroke:#000000;stroke-width:0.32267px;stroke-linecap:butt;stroke-linejoin:miter;stroke-opacity:1"
     inkscape:connector-curvature="0" />
  <path
     id="path480"
     d="m 77.583847,154.86761 30.083883,-14.50414 1.33336,4.21939 -29.667212,13.80091 z"
     style="fill:#999999;stroke:#000000;stroke-width:0.32267px;stroke-linecap:butt;stroke-linejoin:miter;stroke-opacity:1"
     inkscape:connector-curvature="0" />
  <path
     id="path482"
     d="m 108.83443,111.6189 1.33335,4.30728 -9.91686,3.51617 -8.333483,7.29602 -6.250109,9.49362 -5.583436,10.10894 -3.833401,10.37267 -3.666734,-1.58228 4.250077,-11.07588 5.416763,-10.19686 7.166796,-10.10894 9.000164,-7.99927 z"
     style="fill:#ffffff;stroke:#000000;stroke-width:0.32267px;stroke-linecap:butt;stroke-linejoin:miter;stroke-opacity:1"
     inkscape:connector-curvature="0" />
  <path
     id="path484"
     d="m 40.083177,158.20796 9.083496,6.7686 9.916845,4.83473 10.500186,2.90082 11.333538,1.58227 10.833529,-0.79113 10.333529,-2.37342 1.58335,3.77989 -11.333535,2.46129 -11.750213,0.61533 -11.416871,-1.67018 -11.250202,-3.51614 -10.750192,-4.65891 -9.333501,-7.12023 z"
     style="fill:#000000;stroke:#000000;stroke-width:0.32267px;stroke-linecap:butt;stroke-linejoin:miter;stroke-opacity:1"
     inkscape:connector-curvature="0" />
  <path
     id="path486"
     d="m 115.83454,143.70382 33.50061,-4.04358 -0.50001,-3.95567 -33.75061,4.04358 z"
     style="fill:#0000ff;stroke:#000000;stroke-width:0.32267px;stroke-linecap:butt;stroke-linejoin:miter;stroke-opacity:1"
     inkscape:connector-curvature="0" />
  <path
     id="path488"
     d="m 116.75123,115.48668 8.08348,8.26296 9.91684,4.92262 11.08353,2.02178 11.08354,0.61533 -0.33334,3.77987 -11.25021,-0.87904 -11.58354,-2.1976 -10.83352,-5.18633 -8.08349,-7.91135 z"
     style="fill:#ff0000;stroke:#000000;stroke-width:0.32267px;stroke-linecap:butt;stroke-linejoin:miter;stroke-opacity:1"
     inkscape:connector-curvature="0" />
  <path
     id="path490"
     d="m 160.002,137.81427 -3.50005,-2.54923 -6.16679,9.40573 -7.75014,8.08715 -9.08348,6.24118 -10.08352,5.18634 -10.33352,3.34033 1.1667,3.95568 10.33351,-3.60406 10.83352,-5.80165 9.83352,-6.5928 8.00013,-8.70248 z"
     style="fill:#ffff00;stroke:#000000;stroke-width:0.32267px;stroke-linecap:butt;stroke-linejoin:miter;stroke-opacity:1"
     inkscape:connector-curvature="0" />
  <path
     id="path492"
     d="m 164.66875,108.36645 7.4168,2.2855 -6.25012,21.80017 -7.08346,-2.19761 z"
     style="fill:#999999;stroke:#000000;stroke-width:0.32267px;stroke-linecap:butt;stroke-linejoin:miter;stroke-opacity:1"
     inkscape:connector-curvature="0" />
  <path
     id="path494"
     d="m 162.08536,102.74061 1.66671,3.69196 -10.41686,4.04357 -11.25019,2.72503 -11.58355,0.70323 -11.33354,-0.61532 0.33334,-3.95568 10.91687,0.87905 11.2502,-0.52743 10.83353,-2.63712 z"
     style="fill:#000000;stroke:#000000;stroke-width:0.32267px;stroke-linecap:butt;stroke-linejoin:miter;stroke-opacity:1"
     inkscape:connector-curvature="0" />
  <path
     id="path496"
     d="m 119.50127,117.59636 11.08353,0.96695 11.50022,-1.23066 11.58353,-2.46131 10.00019,-4.3073 -1.25003,-3.07661 -9.83351,3.69195 -11.00019,2.63712 -11.00021,0.70324 -11.33353,-0.61534 z"
     style="fill:#ff6600;stroke:#000000;stroke-width:0.32267px;stroke-linecap:butt;stroke-linejoin:miter;stroke-opacity:1"
     inkscape:connector-curvature="0" />
  <path
     id="path498"
     d="m 119.3346,174.38229 44.25081,-6.85652 -0.58336,-4.13148 -44.33413,6.9444 z"
     style="fill:#ff0000;stroke:#000000;stroke-width:0.32267px;stroke-linecap:butt;stroke-linejoin:miter;stroke-opacity:1"
     inkscape:connector-curvature="0" />
  <path
     id="path500"
     d="m 111.33446,176.14037 2.33338,-3.51616 9.08349,5.71375 10.41686,3.77986 11.0002,1.49437 11.25019,0.088 10.75019,-1.84598 10.16687,-4.04358 1.58334,4.3073 -10.66685,3.60406 -11.75022,2.1976 -12.08354,-0.52743 -11.08353,-1.93388 -11.2502,-3.77986 z"
     style="fill:#00ff00;stroke:#000000;stroke-width:0.32267px;stroke-linecap:butt;stroke-linejoin:miter;stroke-opacity:1"
     inkscape:connector-curvature="0" />
  <path
     id="path502"
     d="m 183.33575,174.11857 21.58373,-3.42825 0.83333,3.86776 -22.08372,3.51616 z"
     style="fill:#999999;stroke:#000000;stroke-width:0.32267px;stroke-linecap:butt;stroke-linejoin:miter;stroke-opacity:1"
     inkscape:connector-curvature="0" />
  <path
     id="path504"
     d="m 189.58586,139.22072 3.08338,-1.67017 15.83362,31.46959 -3.33339,1.67018 z"
     style="fill:#00ff00;stroke:#000000;stroke-width:0.32267px;stroke-linecap:butt;stroke-linejoin:miter;stroke-opacity:1"
     inkscape:connector-curvature="0" />
  <path
     id="path506"
     d="m 160.66868,137.72636 7.1668,-1.05486 2.6667,23.38246 -7.58347,0.70322 z"
     style="fill:#999999;stroke:#000000;stroke-width:0.32267px;stroke-linecap:butt;stroke-linejoin:miter;stroke-opacity:1"
     inkscape:connector-curvature="0" />
  <path
     id="path508"
     d="m 170.16885,101.59785 21.33371,-0.52743 0.16668,3.34036 -21.33372,0.43952 z"
     style="fill:#0000ff;stroke:#000000;stroke-width:0.32267px;stroke-linecap:butt;stroke-linejoin:miter;stroke-opacity:1"
     inkscape:connector-curvature="0" />
  <path
     id="path510"
     d="m 170.25218,105.81723 21.16705,-0.61532 0.33335,3.51616 -21.5004,0.35162 z"
     style="fill:#ff00ff;stroke:#000000;stroke-width:0.32267px;stroke-linecap:butt;stroke-linejoin:miter;stroke-opacity:1"
     inkscape:connector-curvature="0" />
  <path
     id="path512"
     d="m 164.66875,132.80374 21.58372,-0.26372 -0.0833,3.42825 -21.50039,0.088 z"
     style="fill:#999999;stroke:#000000;stroke-width:0.32267px;stroke-linecap:butt;stroke-linejoin:miter;stroke-opacity:1"
     inkscape:connector-curvature="0" />
  <path
     id="path514"
     d="m 192.83591,109.06969 -5.25007,21.80016 3.83339,1.14275 4.91675,-22.15177 z"
     style="fill:#999999;stroke:#000000;stroke-width:0.32267px;stroke-linecap:butt;stroke-linejoin:miter;stroke-opacity:1"
     inkscape:connector-curvature="0" />
  <path
     id="path516"
     d="m 183.66909,137.11103 3.50007,2.54921 -12.91691,18.89933 -3.41673,-2.6371 z"
     style="fill:#999999;stroke:#000000;stroke-width:0.32267px;stroke-linecap:butt;stroke-linejoin:miter;stroke-opacity:1"
     inkscape:connector-curvature="0" />
  <path
     id="path518"
     d="m 166.83544,167.9653 6.00012,-5.36214 7.25014,8.61458 -5.66677,5.71376 z"
     style="fill:#999999;stroke:#000000;stroke-width:0.32267px;stroke-linecap:butt;stroke-linejoin:miter;stroke-opacity:1"
     inkscape:connector-curvature="0" />
  <path
     id="path520"
     d="m 196.83599,113.37698 21.08371,6.7686 1.16669,-3.60406 -21.33372,-6.7686 z"
     style="fill:#999999;stroke:#000000;stroke-width:0.32267px;stroke-linecap:butt;stroke-linejoin:miter;stroke-opacity:1"
     inkscape:connector-curvature="0" />
  <path
     id="path522"
     d="m 215.08632,39.186083 21.16704,4.39519 0.83335,-3.955668 -21.75039,-4.4831 z"
     style="fill:#999999;stroke:#000000;stroke-width:0.32267px;stroke-linecap:butt;stroke-linejoin:miter;stroke-opacity:1"
     inkscape:connector-curvature="0" />
  <path
     id="path524"
     d="m 211.66959,31.626349 8.75016,-7.559736 10.41685,-5.801656 10.58353,-3.955676 11.83355,-2.812926 11.5002,0.175809 -0.25002,3.516156 -11.33353,0.43952 -10.41685,2.637117 -10.41685,3.955675 -9.75018,5.010521 -8.41681,7.999255 z"
     style="fill:#000000;stroke:#000000;stroke-width:0.32267px;stroke-linecap:butt;stroke-linejoin:miter;stroke-opacity:1"
     inkscape:connector-curvature="0" />
  <path
     id="path526"
     d="m 266.58723,20.550458 3.91675,-0.87904 5.41677,34.722042 -3.8334,0.351609 z"
     style="fill:#0000ff;stroke:#000000;stroke-width:0.32267px;stroke-linecap:butt;stroke-linejoin:miter;stroke-opacity:1"
     inkscape:connector-curvature="0" />
  <path
     id="path528"
     d="m 266.33723,14.836704 -10.16684,5.274234 -9.41683,8.438774 -6.16678,10.460565 3.75007,1.933888 5.41676,-10.021049 8.58347,-7.999255 9.66686,-4.571001 z"
     style="fill:#999999;stroke:#000000;stroke-width:0.32267px;stroke-linecap:butt;stroke-linejoin:miter;stroke-opacity:1"
     inkscape:connector-curvature="0" />
  <path
     id="path530"
     d="m 244.83686,46.657917 3.75006,-0.263719 1.50004,23.20664 -4.41676,0.08793 z"
     style="fill:#999999;stroke:#000000;stroke-width:0.32267px;stroke-linecap:butt;stroke-linejoin:miter;stroke-opacity:1"
     inkscape:connector-curvature="0" />
  <path
     id="path532"
     d="m 173.66891,59.491883 66.25118,-11.779126 -0.58334,-4.04357 -66.33452,11.867015 z"
     style="fill:#ff00ff;stroke:#000000;stroke-width:0.32267px;stroke-linecap:butt;stroke-linejoin:miter;stroke-opacity:1"
     inkscape:connector-curvature="0" />
  <path
     id="path534"
     d="m 241.92014,45.866783 2.91672,2.988729 -9.25017,7.296019 -11.25021,3.428253 -8.83349,6.32908 -7.33346,8.966202 -3.16672,-2.900827 7.91681,-9.229908 10.16683,-6.680703 11.00022,-3.604056 z"
     style="fill:#ffffff;stroke:#000000;stroke-width:0.32267px;stroke-linecap:butt;stroke-linejoin:miter;stroke-opacity:1"
     inkscape:connector-curvature="0" />
  <path
     id="path536"
     d="m 251.33697,67.666949 18.33365,-12.21865 2.33338,3.779876 -19.08367,11.867028 z"
     style="fill:#ffffff;stroke:#000000;stroke-width:0.32267px;stroke-linecap:butt;stroke-linejoin:miter;stroke-opacity:1"
     inkscape:connector-curvature="0" />
  <path
     id="path538"
     d="m 205.91949,82.874326 -11.41688,18.987244 3.16673,2.1976 11.7502,-19.426773 z"
     style="fill:#ffffff;stroke:#000000;stroke-width:0.32267px;stroke-linecap:butt;stroke-linejoin:miter;stroke-opacity:1"
     inkscape:connector-curvature="0" />
  <path
     id="path540"
     d="m 192.25258,133.15536 10.66686,-1.05485 10.33351,-4.83471 7.75014,-7.12022 2.66672,2.98873 c 0,0 -7.91681,6.15328 -7.83348,6.59279 0.0833,0.43953 -2.08337,1.75808 -2.08337,1.75808 l -9.3335,4.39519 -11.83355,1.14275 z"
     style="fill:#ffffff;stroke:#000000;stroke-width:0.32267px;stroke-linecap:butt;stroke-linejoin:miter;stroke-opacity:1"
     inkscape:connector-curvature="0" />
  <path
     id="path542"
     d="m 197.33599,105.0261 47.91753,-28.920377 1.83336,3.34035 -48.33419,28.744577 z"
     style="fill:#00ff00;stroke:#000000;stroke-width:0.32267px;stroke-linecap:butt;stroke-linejoin:miter;stroke-opacity:1"
     inkscape:connector-curvature="0" />
  <path
     id="path544"
     d="m 205.83616,82.698509 -3.0834,-1.933888 -11.41686,19.426769 2.83339,1.93389 z"
     style="fill:#00ff00;stroke:#000000;stroke-width:0.32267px;stroke-linecap:butt;stroke-linejoin:miter;stroke-opacity:1"
     inkscape:connector-curvature="0" />
  <path
     id="path546"
     d="m 173.50224,59.843504 9.50018,5.274227 10.41684,4.131485 10.83353,2.725023 -0.66667,4.043582 -11.25021,-3.252449 -10.91686,-4.043582 -9.75017,-5.889556 z"
     style="fill:#ff0000;stroke:#000000;stroke-width:0.32267px;stroke-linecap:butt;stroke-linejoin:miter;stroke-opacity:1"
     inkscape:connector-curvature="0" />
  <path
     id="path548"
     d="m 275.67073,13.254432 17.41698,15.910606 -5.00008,5.889563 -17.00032,-15.031567 z"
     style="fill:#b3b3b3;stroke:#000000;stroke-width:0.32267px;stroke-linecap:butt;stroke-linejoin:miter;stroke-opacity:1"
     inkscape:connector-curvature="0" />
  <path
     id="path550"
     d="m 210.75291,71.886336 10.58352,-3.164546 11.58354,-1.494365 11.66687,0.351622 -0.24999,4.131484 -10.91687,-0.615328 -11.00019,1.845972 -10.83353,3.076646 z"
     style="fill:#ff6600;stroke:#000000;stroke-width:0.32267px;stroke-linecap:butt;stroke-linejoin:miter;stroke-opacity:1"
     inkscape:connector-curvature="0" />
  <path
     id="path552"
     d="M 253.25368,71.183104 271.754,59.40398 l 2.00003,3.428254 -18.58366,11.163796 z"
     style="fill:#00ff00;stroke:#000000;stroke-width:0.32267px;stroke-linecap:butt;stroke-linejoin:miter;stroke-opacity:1"
     inkscape:connector-curvature="0" />
  <path
     id="path554"
     d="m 211.83625,76.545247 11.00022,-3.340352 11.08351,-1.670181 11.66689,0.615328 -0.16667,3.69196 -11.33353,-0.791133 -10.91689,1.933889 -10.3335,2.63712 z"
     style="fill:#000000;stroke:#000000;stroke-width:0.32267px;stroke-linecap:butt;stroke-linejoin:miter;stroke-opacity:1"
     inkscape:connector-curvature="0" />
  <path
     id="path556"
     d="m 288.2543,35.669927 3.25006,2.373405 -11.58354,19.690479 -3.33339,-2.725023 z"
     style="fill:#ffff00;stroke:#000000;stroke-width:0.32267px;stroke-linecap:butt;stroke-linejoin:miter;stroke-opacity:1"
     inkscape:connector-curvature="0" />
  <path
     id="path558"
     d="m 295.25443,40.240935 -3.58341,-2.549217 -11.5002,20.129995 2.83338,1.758071 z"
     style="fill:#ff0000;stroke:#000000;stroke-width:0.32267px;stroke-linecap:butt;stroke-linejoin:miter;stroke-opacity:1"
     inkscape:connector-curvature="0" />
  <path
     id="path560"
     d="m 278.00411,62.744331 -3.66674,-0.08793 1.25003,22.855004 3.33339,-0.175805 z"
     style="fill:#ff6600;stroke:#000000;stroke-width:0.32267px;stroke-linecap:butt;stroke-linejoin:miter;stroke-opacity:1"
     inkscape:connector-curvature="0" />
  <path
     id="path562"
     d="m 282.67086,85.159824 h -3.33339 l -1.00002,-22.767114 3.50006,-0.175806 z"
     style="fill:#000000;stroke:#000000;stroke-width:0.32267px;stroke-linecap:butt;stroke-linejoin:miter;stroke-opacity:1"
     inkscape:connector-curvature="0" />
  <path
     id="path564"
     d="m 217.25302,175.61294 9.33351,-6.15328 10.33352,-2.98872 h 11.16687 l 9.5835,5.36212 8.08346,7.47184 7.08347,8.70249 3.00007,-2.54923 -7.66682,-8.96619 -8.58349,-7.99924 -10.91685,-5.53795 -12.08356,-0.17581 -11.5002,3.42825 -9.75018,5.88956 z"
     style="fill:#ff0000;stroke:#000000;stroke-width:0.32267px;stroke-linecap:butt;stroke-linejoin:miter;stroke-opacity:1"
     inkscape:connector-curvature="0" />
  <path
     id="path566"
     d="m 267.92061,136.31989 3.66672,-0.088 0.41667,11.2517 1.58336,11.3396 3.3334,11.3396 5.5001,10.37266 -3.25006,1.67018 -5.75009,-10.81218 -3.75009,-12.13073 -1.66668,-11.95493 z"
     style="fill:#ff00ff;stroke:#000000;stroke-width:0.32267px;stroke-linecap:butt;stroke-linejoin:miter;stroke-opacity:1"
     inkscape:connector-curvature="0" />
  <path
     id="path568"
     d="m 240.08677,136.4078 2.66671,-1.67018 35.08395,46.50116 -2.50002,2.1976 -35.50065,-46.23745 z"
     style="fill:#0000ff;stroke:#000000;stroke-width:0.32267px;stroke-linecap:butt;stroke-linejoin:miter;stroke-opacity:1"
     inkscape:connector-curvature="0" />
  <path
     id="path570"
     d="m 247.50356,79.270256 3.16672,2.373413 -6.91679,9.845234 -9.75015,6.680694 -6.91681,8.702493 -5.00008,10.28476 -3.41673,-1.93389 5.5001,-10.54847 7.58346,-9.757333 9.50017,-6.680703 z"
     style="fill:#ffff00;stroke:#000000;stroke-width:0.32267px;stroke-linecap:butt;stroke-linejoin:miter;stroke-opacity:1"
     inkscape:connector-curvature="0" />
  <path
     id="path572"
     d="m 255.17037,75.138772 20.08369,10.900088 -1.58337,3.07663 -20.16701,-10.900074 z"
     style="fill:#999999;stroke:#000000;stroke-width:0.32267px;stroke-linecap:butt;stroke-linejoin:miter;stroke-opacity:1"
     inkscape:connector-curvature="0" />
  <path
     id="path574"
     d="m 255.42037,103.97126 3.91675,-0.79113 -5.0001,-22.679216 -3.5834,0.615329 z"
     style="fill:#999999;stroke:#000000;stroke-width:0.32267px;stroke-linecap:butt;stroke-linejoin:miter;stroke-opacity:1"
     inkscape:connector-curvature="0" />
  <path
     id="path576"
     d="m 274.17071,89.203393 5.83345,4.922618 -13.75026,17.668689 -6.16677,-4.92261 z"
     style="fill:#999999;stroke:#000000;stroke-width:0.32267px;stroke-linecap:butt;stroke-linejoin:miter;stroke-opacity:1"
     inkscape:connector-curvature="0" />
  <path
     id="path578"
     d="m 227.25319,119.35445 9.41685,6.94439 -2.25004,3.25245 -9.0835,-6.6807 z"
     style="fill:#999999;stroke:#000000;stroke-width:0.32267px;stroke-linecap:butt;stroke-linejoin:miter;stroke-opacity:1"
     inkscape:connector-curvature="0" />
  <path
     id="path580"
     d="m 261.50382,115.48668 9.41683,6.50487 -2.75005,7.12023 3.91675,1.93388 4.91675,-10.28476 -13.33358,-8.79039 z"
     style="fill:#999999;stroke:#000000;stroke-width:0.32267px;stroke-linecap:butt;stroke-linejoin:miter;stroke-opacity:1"
     inkscape:connector-curvature="0" />
  <path
     id="path582"
     d="m 244.58684,135.79246 21.50039,1.23066 -0.16666,-4.04357 -21.58372,-1.05484 z"
     style="fill:#999999;stroke:#000000;stroke-width:0.32267px;stroke-linecap:butt;stroke-linejoin:miter;stroke-opacity:1"
     inkscape:connector-curvature="0" />
  <path
     id="path584"
     d="m 256.00372,110.56404 5.16675,6.41699 -16.58363,14.50415 -5.00009,-6.15328 z"
     style="fill:#999999;stroke:#000000;stroke-width:0.32267px;stroke-linecap:butt;stroke-linejoin:miter;stroke-opacity:1"
     inkscape:connector-curvature="0" />
  <path
     id="path586"
     d="m 237.25337,133.15536 -7.91678,7.38392 -7.00013,8.8783 -6.58346,10.90007 -4.33342,10.90009 3.66674,1.49437 4.00007,-10.54847 6.08344,-10.10895 6.83346,-8.70249 8.25015,-7.55974 z"
     style="fill:#ff6600;stroke:#000000;stroke-width:0.32267px;stroke-linecap:butt;stroke-linejoin:miter;stroke-opacity:1"
     inkscape:connector-curvature="0" />
  <path
     id="path588"
     d="m 234.66999,129.7271 2.66674,3.16454 -7.91681,7.03232 -7.25014,9.40571 -6.33345,9.66943 -3.75007,10.37267 -3.50007,-1.58228 4.33343,-10.90009 6.58345,-10.19685 7.16679,-9.40571 z"
     style="fill:#ffff00;stroke:#000000;stroke-width:0.32267px;stroke-linecap:butt;stroke-linejoin:miter;stroke-opacity:1"
     inkscape:connector-curvature="0" />
  <path
     id="path590"
     d="m 225.0865,114.69553 10.0835,-6.59278 11.41688,-2.72502 11.33356,0.52741 v 4.2194 l -10.91689,-0.87905 -10.66685,2.63712 -9.08351,5.97746 z"
     style="fill:#000000;stroke:#000000;stroke-width:0.32267px;stroke-linecap:butt;stroke-linejoin:miter;stroke-opacity:1"
     inkscape:connector-curvature="0" />
  <ellipse
     ry="2.9917846"
     rx="2.9090028"
     cy="22.053984"
     cx="23.337894"
     id="Vancouver"
     style="fill:#ff0000;stroke-width:0.32267">
    <title
       id="title441">Vancouver</title>
  </ellipse>
  <ellipse
     style="fill:#ff0000;stroke-width:0.32267"
     id="Calgary"
     cx="63.91848"
     cy="16.300543"
     rx="2.9090028"
     ry="2.9917846">
    <title
       id="title443">Calgary</title>
  </ellipse>
  <ellipse
     style="fill:#ff0000;stroke-width:0.32267"
     id="Winnipeg"
     cx="134.46181"
     cy="19.829313"
     rx="2.9090028"
     ry="2.9917846">
    <title
       id="title445">Winnipeg</title>
  </ellipse>
  <ellipse
     style="fill:#ff0000;stroke-width:0.32267"
     id="SaultMarie"
     cx="209.80498"
     cy="36.399204"
     rx="2.9090028"
     ry="2.9917846">
    <title
       id="title447">Sault St. Marie</title>
  </ellipse>
  <ellipse
     style="fill:#ff0000;stroke-width:0.32267"
     id="Toronto"
     cx="244.13118"
     cy="43.456749"
     rx="2.9090028"
     ry="2.9917846">
    <title
       id="title453">Toronto</title>
  </ellipse>
  <ellipse
     style="fill:#ff0000;stroke-width:0.32267"
     id="Montreal"
     cx="270.31223"
     cy="14.45944"
     rx="2.9090028"
     ry="2.9917846">
    <title
       id="title449">Montreal</title>
  </ellipse>
  <ellipse
     style="fill:#ff0000;stroke-width:0.32267"
     id="Boston"
     cx="292.5661"
     cy="33.944408"
     rx="2.9090028"
     ry="2.9917846">
    <title
       id="title451">Boston</title>
  </ellipse>
  <ellipse
     style="fill:#ff0000;stroke-width:0.32267"
     id="NewYork"
     cx="276.13025"
     cy="58.79924"
     rx="2.9090028"
     ry="2.9917846">
    <title
       id="title455">New York</title>
  </ellipse>
  <ellipse
     style="fill:#ff0000;stroke-width:0.32267"
     id="Washington"
     cx="278.89377"
     cy="88.870506"
     rx="2.9090028"
     ry="2.9917846">
    <title
       id="title457">Washington</title>
  </ellipse>
  <ellipse
     style="fill:#ff0000;stroke-width:0.32267"
     id="Raleigh"
     cx="260.42163"
     cy="111.11711"
     rx="2.9090028"
     ry="2.9917846">
    <title
       id="title461">Raleigh</title>
  </ellipse>
  <ellipse
     style="fill:#ff0000;stroke-width:0.32267"
     id="LasVegas"
     cx="55.482372"
     cy="137.5062"
     rx="2.9090028"
     ry="2.9917846">
    <title
       id="title509">Las Vegas</title>
  </ellipse>
  <ellipse
     style="fill:#ff0000;stroke-width:0.32267"
     id="Phoenix"
     cx="72.936386"
     cy="159.29251"
     rx="2.9090028"
     ry="2.9917846">
    <title
       id="title511">Phoenix</title>
  </ellipse>
  <ellipse
     style="fill:#ff0000;stroke-width:0.32267"
     id="SantaFe"
     cx="111.48067"
     cy="141.95551"
     rx="2.9090028"
     ry="2.9917846">
    <title
       id="title493">Santa Fe</title>
  </ellipse>
  <ellipse
     style="fill:#ff0000;stroke-width:0.32267"
     id="ElPaso"
     cx="110.17165"
     cy="171.87335"
     rx="2.9090028"
     ry="2.9917846">
    <title
       id="title491">El Paso</title>
  </ellipse>
  <ellipse
     style="fill:#ff0000;stroke-width:0.32267"
     id="OklahomaCity"
     cx="160.64282"
     cy="134.28429"
     rx="2.9090028"
     ry="2.9917846">
    <title
       id="title485">Oaklahoma City</title>
  </ellipse>
  <ellipse
     style="fill:#ff0000;stroke-width:0.32267"
     id="LittleRock"
     cx="189.15106"
     cy="135.35826"
     rx="2.9090028"
     ry="2.9917846">
    <title
       id="title477">Little Rock</title>
  </ellipse>
</svg>
